<svg version="1.2" xmlns="http://www.w3.org/2000/svg" viewBox="0 0 1024 1024" width="100" height="100">
	<title>new</title>
	<style>
		.s0 { fill: #6379ff } 
	</style>
	<g id="Layer 1">
		<path id="форма 7" fill-rule="evenodd" class="s0" d="m516.1 617.4c0 0-14.3 38.3 12.6 75.7 9.8 13.7 34.4 35.2 54 43.4 0 0 59.4 22.6 88.6 28.9 0 0 15.1 5.1 33.2-14.9 17.9-19.7 41.5-68.4 45.2-85.2 0 0-33 19.1-65.6 22.1 0 0-62.1 1.2-86-11.2 0 0-73.6-33.2-82-58.8z"/>
		<path id="форма 7" fill-rule="evenodd" class="s0" d="m501.5 617.4c0 0 14.4 38.3-12.6 75.7-9.8 13.7-34.3 35.2-53.9 43.4 0 0-59.4 22.6-88.7 28.9 0 0-15 5.1-33.2-14.9-17.9-19.7-41.5-68.4-45.2-85.2 0 0 33.1 19.1 65.7 22.1 0 0 62 1.2 85.9-11.2 0 0 73.7-33.2 82-58.8z"/>
		<path id="форма 6" fill-rule="evenodd" class="s0" d="m777.5 629.7c0 0 34.8-15.1 49.5-40.2 0 0-14.9 8-23.2 7.9-0.5 0-21-2.6-21-2.6 0.4 2.5-2.4 16-5.3 34.9z"/>
		<path id="форма 6" fill-rule="evenodd" class="s0" d="m239.3 625.1c0 0-34.8-15.1-49.5-40.2 0 0 14.9 7.9 23.2 7.8 0.5 0 21-2.5 21-2.5-0.4 2.5 2.4 15.9 5.3 34.9z"/>
		<path id="форма 4" fill-rule="evenodd" class="s0" d="m512.3 408.6c-13.3 0-24-10.7-24-24 0-13.3 10.7-24 24-24 13.2 0 24 10.7 24 24 0 13.3-10.8 24-24 24z"/>
		<path id="форма 1" fill-rule="evenodd" class="s0" d="m500.7 348.2c0 0-32.7-43.2-61.9-77.3 0 0-31.2-26.7-45.5-86 0 0-15.2-60.3 36.2-111.9 49-49.2 80.5-60.4 80.5-60.4 0 0 5.3-5.5 61.7 40.4 0 0 45.8 27.1 69.7 111.2 0 0-31.1 3.9-68 68l-29.4 74.3c0 0-11.7 29.4-20.1 37.1l1.5-108.3c0 0 3.7-30.3-12.3-27.8 0 0-14.8-5-14 15.5 0 0 4.5 122.5 1.6 125.2z"/>
		<path id="форма 1" fill-rule="evenodd" class="s0" d="m468.9 383.9c0 0-45.8-4-89.1 7.9 0 0-37.4 16.8-97.2 4.6 0 0-61-11.8-85.9-80.3-23.7-65.3-17.6-112.1-17.6-112.1 0 0-7.2 1.8 58.5-29.7 0 0 45.5-25.3 131.8-11.3 0 0-9.8 29.9 32.6 90.6l50.9 64.8c0 0 22.5 27.1 25.9 38l-80.9-42.8c0 0-46.2-30.5-50.7-14.9 0 0-5.8 9 14.9 18.1 0 0 105.6 63.3 106.8 67.1z"/>
		<path id="форма 1" fill-rule="evenodd" class="s0" d="m550.3 408.7c0 0 21.8-12.8 66.3-6.7 0 0 73.9 7.4 115.8 59.3 0 0 16.5 12.2 25.2 62.9 0.7 4 2.5 35.1-1.7 62.8-4.1 27.1-17.7 53.7-17.7 53.7 0 0-6.4 16.9-79.2 20 0 0-56.9-3.6-95.1-32.8-28-21.5-41.9-52.7-45.2-94.2 0 0 1.1-101.2 6.1-107.7l22.4 14.8 32 30.9c0 0 41.6 49.3 51.6 34.7 0 0 4.9-6.5-31.8-50-10.9-13-48.9-46.1-48.7-47.7z"/>
		<path id="форма 1" fill-rule="evenodd" class="s0" d="m474.9 408.7c0 0-21.8-12.8-66.3-6.7 0 0-73.9 7.4-115.8 59.3 0 0-16.5 12.2-25.2 62.9-0.7 4-2.5 35.1 1.7 62.8 4.1 27.1 17.7 53.7 17.7 53.7 0 0 6.4 16.9 79.2 20 0 0 56.9-3.6 95.1-32.8 28-21.5 41.9-52.7 45.2-94.2 0 0-1.1-101.2-6.1-107.7l-22.4 14.8-31.9 30.9c0 0-41.7 49.3-51.7 34.7 0 0-4.8-6.5 31.8-50 10.9-13 48.9-46.1 48.7-47.7z"/>
		<path id="форма 1" fill-rule="evenodd" class="s0" d="m540.9 356.1c0 0 22.9-49.2 39.3-90.9 0 0 9-40.1 54.7-80.5 0 0 51.3-39.2 122.3-23.1 63.7 14.5 84.5 45.3 84.5 45.3 0 0 7.7 38.8-15.2 107 0 0 2.7 15.6-60.1 70.1 0 0-26.3 16.1-80.3 14.9 0 0-29.4-11.1-63.3-15.6-24.8-3.2-54.2 0.6-65.5-2.5-1.4-0.4 5.1-8.4 23.9-19.5 27.9-16.3 71.1-36.3 71.1-36.3 0 0 28.5-11 18.7-24 0 0-2.4-15.4-20.1-5 0 0-106.2 61.4-110 60.1z"/>
		<path id="форма 2" fill-rule="evenodd" class="s0" d="m273.3 134.8c0 0 3.8-65.6 49.5-94.3 0 0 14.6-6 49.5 0 0 0 23.4 3.5 40.2 15.4 0 0-36.2 33.7-37.1 85.1 0 0-25-12.6-52.6-12.4 0 0-40.6 0.7-49.5 6.2z"/>
		<path id="форма 3" fill-rule="evenodd" class="s0" d="m616.7 60.6c0 0 15.8-13 57.2-15.5 0 0 34.7-1.5 41.8 7.7 0 0 31 38.2 43.3 88.2 0 0-33-8.6-51.1-6.2 0 0-33.4 3.4-47.9 12.4 0 0-4.7-44.3-43.3-86.6z"/>
		<path id="форма 5" fill-rule="evenodd" class="s0" d="m95.4 445.7l34.1-78.9c0 0 16.8-34.7 44.8-52.6 0 0 10 44.4 74.3 89.7 0 0 30.6 17.4 46.4 18.6 0 0-63.8 65.4-57.3 148.5 0 0-53-5.6-88.1-46.4 0 0-43.4-43.6-54.2-78.9z"/>
		<path id="форма 5" fill-rule="evenodd" class="s0" d="m927.6 444.1l-34.1-78.8c0 0-16.8-34.7-44.8-52.6 0 0-10 44.4-74.3 89.7 0 0-30.6 17.3-46.4 18.5 0 0 63.8 65.5 57.3 148.5 0 0 53-5.5 88.1-46.4 0 0 43.4-43.6 54.2-78.9z"/>
		<path id="форма 8" fill-rule="evenodd" class="s0" d="m483.1 875.3c0 0-34.2-15.8-38.9-47 0 0-4.3-20.7 4.8-48.7 0 0 13.6-28.5 17.9-34l11.3 8.1c0 0-10.9 18-16.2 35.7 0 0-5.3 12.8-1.6 40.5 0 0 7.6 22.1 24.3 27.6 0 0-10-11.4 0-27.6 0 0 8.8-15.5 27.6-16.2v35.7 90.8c0 0-16.1 0.3-22.7-19.4l-1.6-11.4c0 0-22.3 17.6-24.4 40.6 0 0-1 21.8 8.2 45.4 0 0 7.9 10.7 3.2 16.2 0 0-21.7 1.7-27.6-47 0 0-0.5-27.4 13-45.5 0 0 15.7-13 21.1-16.2 0 0 7.5-3.8 4.9-8.1 0 0-17.1 0.9-27.6 9 0 0-33.2 25.6-40.6 53.8 0 0-6.5 7.9-11.3-1.2 0 0-0.4-22.1 18.1-41.3 18.9-19.6 28.4-21.8 38.6-28.4 0 0-28.3-0.3-44.7-18.7-0.2-0.2-0.5-0.4-0.7-0.8-7-14.6-9.8-36.2-9.8-36.2 0 0-1-34.6 5-25.4 0 0 2.4 17.7 6.5 29.2 0 0 8.4 23.8 19.5 30.4 0 0 14.1 13.2 24.2 13.4 0 0 12.5 1.4 16.3 0 0 0 3-0.2 3.2-3.3z"/>
		<path id="форма 8" fill-rule="evenodd" class="s0" d="m541.5 875.3c0 0 34.2-15.8 38.9-47 0 0 4.3-20.7-4.8-48.7 0 0-13.6-28.5-17.9-34l-11.3 8.1c0 0 11 18 16.2 35.7 0 0 5.3 12.8 1.6 40.5 0 0-7.6 22.1-24.3 27.6 0 0 10-11.4 0-27.6 0 0-8.8-15.5-27.6-16.2v35.7 90.8c0 0 16.1 0.3 22.7-19.4l1.6-11.4c0 0 22.3 17.6 24.4 40.6 0 0 1.1 21.8-8.1 45.4 0 0-8 10.7-3.3 16.2 0 0 21.7 1.7 27.6-47 0 0 0.5-27.4-13-45.5 0 0-15.7-13-21.1-16.2 0 0-7.5-3.8-4.8-8.1 0 0 17 0.9 27.5 9 0 0 33.2 25.6 40.6 53.8 0 0 6.5 7.9 11.3-1.2 0 0 0.4-22.1-18-41.3-19-19.6-28.5-21.8-38.7-28.4 0 0 28.3-0.3 44.7-18.7 0.2-0.2 0.5-0.4 0.7-0.8 7-14.6 9.8-36.2 9.8-36.2 0 0 1-34.6-4.9-25.4 0 0-2.5 17.7-6.5 29.2 0 0-8.5 23.8-19.6 30.4 0 0-14.1 13.2-24.2 13.4 0 0-12.5 1.4-16.3 0 0 0-3-0.2-3.2-3.3z"/>
	</g>
</svg>