<svg version="1.2" xmlns="http://www.w3.org/2000/svg" viewBox="0 0 1024 1024" width="16" height="16">
	<title>tuber-insights-ico-svg</title>
	<style>
		.s0 { fill: #6379ff } 
	</style>
	<g id="Layer 1">
		<path id="форма 7" fill-rule="evenodd" class="s0" d="m517.1 768.4c0 0-16.1 43.1 14.2 85.1 11 15.4 38.7 39.6 60.7 48.8 0 0 66.8 25.5 99.7 32.5 0 0 17 5.8 37.3-16.7 20.1-22.2 46.7-76.9 50.8-95.8 0 0-37.1 21.5-73.7 24.8 0 0-69.9 1.4-96.7-12.6 0 0-82.8-37.3-92.3-66.1z"/>
		<path id="форма 7" fill-rule="evenodd" class="s0" d="m500.7 768.4c0 0 16.2 43.1-14.2 85.1-11 15.4-38.5 39.6-60.6 48.8 0 0-66.8 25.5-99.7 32.5 0 0-16.9 5.8-37.4-16.7-20.1-22.2-46.6-76.9-50.8-95.8 0 0 37.2 21.5 73.9 24.8 0 0 69.7 1.4 96.6-12.6 0 0 82.9-37.3 92.2-66.1z"/>
		<path id="форма 6" fill-rule="evenodd" class="s0" d="m811.1 782.2c0 0 39.1-16.9 55.7-45.2 0 0-16.8 9-26.1 8.9-0.6 0-23.6-2.9-23.6-2.9 0.4 2.8-2.7 18-6 39.2z"/>
		<path id="форма 6" fill-rule="evenodd" class="s0" d="m205.8 777.1c0 0-39.1-17-55.6-45.2 0 0 16.7 8.8 26.1 8.7 0.5 0 23.6-2.8 23.6-2.8-0.5 2.8 2.7 17.9 5.9 39.3z"/>
		<path id="форма 4" fill-rule="evenodd" class="s0" d="m512.9 533.6c-15 0-27-12.1-27-27 0-14.9 12-27 27-27 14.9 0 26.9 12.1 26.9 27 0 14.9-12 27-26.9 27z"/>
		<path id="форма 1" fill-rule="evenodd" class="s0" d="m499.8 465.7c0 0-36.8-48.6-69.6-87 0 0-35.1-30-51.2-96.7 0 0-17.1-67.8 40.7-125.8 55.1-55.4 90.6-68 90.6-68 0 0 5.9-6.2 69.4 45.5 0 0 51.5 30.4 78.3 125 0 0-34.9 4.4-76.4 76.5l-33.1 83.6c0 0-13.2 33-22.6 41.7l1.7-121.8c0 0 4.2-34.1-13.8-31.3 0 0-16.7-5.6-15.8 17.5 0 0 5.1 137.7 1.8 140.8z"/>
		<path id="форма 1" fill-rule="evenodd" class="s0" d="m464 505.8c0 0-51.5-4.5-100.2 8.9 0 0-42 18.9-109.3 5.2 0 0-68.6-13.3-96.6-90.3-26.6-73.5-19.8-126.1-19.8-126.1 0 0-8.1 2 65.8-33.4 0 0 51.2-28.5 148.2-12.7 0 0-11 33.6 36.7 101.9l57.3 72.8c0 0 25.3 30.5 29.1 42.8l-91-48.2c0 0-52-34.3-57-16.7 0 0-6.5 10.1 16.7 20.3 0 0 118.8 71.2 120.1 75.5z"/>
		<path id="форма 1" fill-rule="evenodd" class="s0" d="m555.6 533.7c0 0 24.5-14.4 74.6-7.5 0 0 83.1 8.3 130.2 66.6 0 0 18.5 13.8 28.3 70.8 0.8 4.5 2.8 39.5-1.9 70.6-4.6 30.5-19.9 60.4-19.9 60.4 0 0-7.2 19-89.1 22.5 0 0-64-4-106.9-36.9-31.5-24.2-47.1-59.3-50.8-105.9 0 0 1.2-113.8 6.8-121.2l25.2 16.7 36 34.7c0 0 46.8 55.5 58 39.1 0 0 5.5-7.3-35.7-56.3-12.3-14.6-55-51.8-54.8-53.6z"/>
		<path id="форма 1" fill-rule="evenodd" class="s0" d="m470.8 533.7c0 0-24.5-14.4-74.6-7.5 0 0-83.1 8.3-130.2 66.6 0 0-18.6 13.8-28.3 70.8-0.8 4.5-2.9 39.5 1.9 70.6 4.6 30.5 19.9 60.4 19.9 60.4 0 0 7.2 19 89 22.5 0 0 64-4 107-36.9 31.5-24.2 47.1-59.3 50.8-105.9 0 0-1.2-113.8-6.8-121.2l-25.2 16.7-35.9 34.7c0 0-46.9 55.5-58.1 39.1 0 0-5.4-7.3 35.7-56.3 12.3-14.6 55-51.8 54.8-53.6z"/>
		<path id="форма 1" fill-rule="evenodd" class="s0" d="m545 474.5c0 0 25.8-55.3 44.2-102.2 0 0 10.1-45.1 61.5-90.5 0 0 57.7-44.1 137.6-26 71.6 16.3 95 50.9 95 50.9 0 0 8.7 43.7-17.1 120.4 0 0 3.1 17.5-67.6 78.8 0 0-29.6 18.1-90.3 16.8 0 0-33-12.5-71.2-17.6-27.9-3.6-60.9 0.7-73.6-2.8-1.6-0.4 5.7-9.4 26.8-21.9 31.4-18.3 80-40.8 80-40.8 0 0 32.1-12.4 21-27 0 0-2.7-17.3-22.6-5.7 0 0-119.4 69.1-123.7 67.6z"/>
		<path id="форма 2" fill-rule="evenodd" class="s0" d="m244.1 225.7c0 0 4.2-73.8 55.6-106.1 0 0 16.5-6.7 55.7 0 0 0 26.3 3.9 45.2 17.3 0 0-40.7 37.9-41.7 95.7 0 0-28.1-14.1-59.2-13.9 0 0-45.6 0.8-55.6 7z"/>
		<path id="форма 3" fill-rule="evenodd" class="s0" d="m630.3 142.2c0 0 17.7-14.6 64.3-17.4 0 0 39-1.7 47 8.6 0 0 34.9 43 48.7 99.2 0 0-37.1-9.6-57.5-6.9 0 0-37.5 3.8-53.8 13.9 0 0-5.3-49.8-48.7-97.4z"/>
		<path id="форма 5" fill-rule="evenodd" class="s0" d="m44 575.3l38.3-88.7c0 0 18.9-39.1 50.4-59.2 0 0 11.3 49.9 83.6 100.9 0 0 34.4 19.6 52.2 20.9 0 0-71.8 73.6-64.5 167 0 0-59.6-6.3-99-52.2 0 0-48.9-49-61-88.7z"/>
		<path id="форма 5" fill-rule="evenodd" class="s0" d="m979.9 573.5l-38.3-88.6c0 0-18.9-39-50.4-59.2 0 0-11.3 50-83.6 100.9 0 0-34.4 19.5-52.2 20.8 0 0 71.8 73.7 64.5 167 0 0 59.6-6.2 99.1-52.2 0 0 48.8-49 60.9-88.7z"/>
	</g>
</svg>